<svg id="Layer_1" data-name="Layer 1" xmlns="http://www.w3.org/2000/svg" width="640" height="361" viewBox="0 0 640 361"><defs><style>.cls-1{fill:#183599;}</style></defs><path class="cls-1" d="M169.72,218.62v56H157l0-37.82-5.07,37.82h-9l-5.35-37v37H124.77v-56h18.85c.56,3.37,1.14,7.33,1.73,11.91l2.07,14.25,3.35-26.16Z"/><path class="cls-1" d="M210.1,218.62v37.44a65.12,65.12,0,0,1-.41,8.94,12.18,12.18,0,0,1-2.46,5.3,12.75,12.75,0,0,1-5.38,4.11,20,20,0,0,1-7.87,1.4,22,22,0,0,1-8.86-1.66,13.23,13.23,0,0,1-5.75-4.32,12,12,0,0,1-2.25-5.63q-.35-3-.34-12.43V218.62h14.57v42a16.05,16.05,0,0,0,.4,4.69,1.54,1.54,0,0,0,1.6,1,1.68,1.68,0,0,0,1.79-1.12,21.52,21.52,0,0,0,.4-5.31V218.62Z"/><path class="cls-1" d="M248,235.57H234.49v-4.15a8.19,8.19,0,0,0-.51-3.7,1.91,1.91,0,0,0-1.73-.79,2.17,2.17,0,0,0-2,1.07,6.22,6.22,0,0,0-.68,3.25,9.3,9.3,0,0,0,.76,4.23q.72,1.43,4.12,3.42,9.72,5.78,12.25,9.48t2.53,11.94q0,6-1.4,8.82a11,11,0,0,1-5.42,4.76,21.47,21.47,0,0,1-9.34,1.92,20.87,20.87,0,0,1-10-2.22,10.83,10.83,0,0,1-5.41-5.64,28.81,28.81,0,0,1-1.28-9.72v-3.67h13.53v6.82q0,3.15.57,4.05a2.22,2.22,0,0,0,2,.9,2.39,2.39,0,0,0,2.17-1.14,6.65,6.65,0,0,0,.71-3.39q0-4.95-1.35-6.48a43.3,43.3,0,0,0-6.82-5.08A67.06,67.06,0,0,1,220,245a12,12,0,0,1-2.92-4.5,19.7,19.7,0,0,1-1.16-7.33c0-4.29.54-7.43,1.64-9.41a11.06,11.06,0,0,1,5.31-4.66,21.22,21.22,0,0,1,8.86-1.68,23.08,23.08,0,0,1,9.67,1.84c2.67,1.22,4.43,2.76,5.3,4.62s1.29,5,1.3,9.46Z"/><path class="cls-1" d="M269.79,218.62v56H255.22v-56Z"/><path class="cls-1" d="M311.78,218.62l-8.36,25.29,9.15,30.73H297.52l-5.9-24v24H277.05v-56h14.57v21.76l6.49-21.76Z"/><path class="cls-1" d="M332.48,218.62v44.81h8.86v11.21H317.92v-56Z"/><path class="cls-1" d="M377.09,251.42q0,8.45-.4,12a13.42,13.42,0,0,1-8.15,10.88,20.6,20.6,0,0,1-8.31,1.56,21.09,21.09,0,0,1-8.08-1.48,13.43,13.43,0,0,1-8.35-10.81,116.58,116.58,0,0,1-.42-12.11v-9.58q0-8.44.4-12A13.41,13.41,0,0,1,351.93,219a20.56,20.56,0,0,1,8.3-1.56,21.27,21.27,0,0,1,8.08,1.47,13.49,13.49,0,0,1,8.36,10.82,119.31,119.31,0,0,1,.41,12.11ZM362.52,233a17.52,17.52,0,0,0-.43-5,1.73,1.73,0,0,0-1.79-1.09,2,2,0,0,0-1.74.88c-.41.59-.61,2.33-.6,5.21v26.16a25.28,25.28,0,0,0,.4,6,1.72,1.72,0,0,0,1.85,1.14,1.78,1.78,0,0,0,1.9-1.31,28,28,0,0,0,.41-6.26Z"/><path class="cls-1" d="M382.52,218.62h24.67v11.21h-10.1v10.62h9v10.66h-9v23.53H382.52Z"/><path class="cls-1" d="M442.9,218.62v11.21h-8.65v44.81H419.68V229.83h-8.62V218.62Z"/><path class="cls-1" d="M446.22,218.62h24.29v11.21h-9.72v10.62h9.1v10.66h-9.1v12.32h10.69v11.21H446.22Z"/><path class="cls-1" d="M505.51,218.62v11.21h-8.65v44.81H482.29V229.83h-8.62V218.62Z"/><path class="cls-1" d="M305.83,142a6.18,6.18,0,0,0-3.75-4,10.2,10.2,0,0,0-3.94-.68,8.4,8.4,0,0,0-4.47,1.06,5.57,5.57,0,0,0-2.43,2.81,10.27,10.27,0,0,0-.53,2.32H260.16v9.92h30.45a12.87,12.87,0,0,0,.33,2.62,5.88,5.88,0,0,0,1.24,2.42,5.1,5.1,0,0,0,2.43,1.5,12.66,12.66,0,0,0,3.82.5,10.15,10.15,0,0,0,3.58-.58,5.9,5.9,0,0,0,2.55-1.8,6.22,6.22,0,0,0,1.3-2.62,13.88,13.88,0,0,0,.24-2h59.06v-9.93H306.08A9.34,9.34,0,0,0,305.83,142Z"/><path class="cls-1" d="M330.83,159a6.18,6.18,0,0,0-3.75-4,10.2,10.2,0,0,0-3.94-.68,8.4,8.4,0,0,0-4.47,1.06,5.57,5.57,0,0,0-2.43,2.81,11,11,0,0,0-.59,2.95h-55.5v9.92h55.49a12.09,12.09,0,0,0,.29,2,6,6,0,0,0,1.24,2.42,5.2,5.2,0,0,0,2.43,1.5,12.7,12.7,0,0,0,3.82.5,10.15,10.15,0,0,0,3.58-.58,5.84,5.84,0,0,0,2.55-1.8,6.1,6.1,0,0,0,1.3-2.62,11.2,11.2,0,0,0,.19-1.4h34.12v-9.93h-34A10.82,10.82,0,0,0,330.83,159Z"/><path class="cls-1" d="M356.83,124a6.18,6.18,0,0,0-3.75-4,10.2,10.2,0,0,0-3.94-.68,8.4,8.4,0,0,0-4.47,1.06,5.57,5.57,0,0,0-2.43,2.81,10.74,10.74,0,0,0-.56,2.69H260.16v9.92h81.47a13.1,13.1,0,0,0,.31,2.25,5.88,5.88,0,0,0,1.24,2.42,5.1,5.1,0,0,0,2.43,1.5,12.66,12.66,0,0,0,3.82.5,9.92,9.92,0,0,0,3.58-.58,5.9,5.9,0,0,0,2.55-1.8,6.22,6.22,0,0,0,1.3-2.62,11.77,11.77,0,0,0,.21-1.66h8.09v-9.93H357.1A9.72,9.72,0,0,0,356.83,124Z"/><rect class="cls-1" x="260.16" y="178.77" width="105" height="9.92"/><path class="cls-1" d="M287.12,108.25a10.39,10.39,0,0,0-.29-2.22,6.18,6.18,0,0,0-3.75-4,10.2,10.2,0,0,0-3.94-.68,8.4,8.4,0,0,0-4.47,1.06,5.57,5.57,0,0,0-2.43,2.81,11.37,11.37,0,0,0-.6,3.06H260.16v9.92h11.5a10.94,10.94,0,0,0,.28,1.88,5.88,5.88,0,0,0,1.24,2.42,5.15,5.15,0,0,0,2.43,1.5,12.66,12.66,0,0,0,3.82.5,10.15,10.15,0,0,0,3.58-.58,5.84,5.84,0,0,0,2.55-1.8,6.22,6.22,0,0,0,1.3-2.62q.12-.64.18-1.29h78.12v-9.93Z"/></svg>